<?xml version="1.0" encoding="UTF-8"?>
<svg width="25px" height="22px" viewBox="0 0 25 22" version="1.1" xmlns="http://www.w3.org/2000/svg" xmlns:xlink="http://www.w3.org/1999/xlink">
    <!-- Generator: Sketch 52.4 (67378) - http://www.bohemiancoding.com/sketch -->
    <title>001-building copy 2</title>
    <desc>Created with Sketch.</desc>
    <g id="Page-1" stroke="none" stroke-width="1" fill="none" fill-rule="evenodd" opacity="0.99000001">
        <g id="001-building-copy-2" fill="#FFFFFF" fill-rule="nonzero">
            <g id="001-building-copy">
                <path d="M20.309449,10.1781609 C19.9174048,10.1781609 19.6137875,10.4631885 19.6137875,10.8346952 L19.6137875,19.8026688 L14.6806964,19.8026688 L14.6806964,16.1406796 C14.6806964,15.7971438 14.3771185,15.4968289 14.0101195,15.4968289 L10.4432668,15.4968289 C10.0509071,15.4968289 9.73490534,15.7971066 9.73490534,16.1406796 L9.73490534,19.8026688 L4.81423822,19.8026688 L4.81423822,11.1324436 C4.81423822,10.7863041 4.51093644,10.4987844 4.11857674,10.4987844 C3.75185373,10.4987844 3.44827586,10.7863041 3.44827586,11.1324436 L3.44827586,20.4592403 C3.44827586,20.8053426 3.75185373,21.0928995 4.11857674,21.0928995 L10.4432668,21.0928995 C10.8099899,21.0928995 11.1135677,20.8053426 11.1135677,20.4592403 L11.1135677,16.7972139 L13.3144185,16.7972139 L13.3144185,20.4592403 C13.3144185,20.8053426 13.6179964,21.0928995 14.0101195,21.0928995 L20.309449,21.0928995 C20.6762114,21.0928995 20.9797498,20.8053426 20.9797498,20.4592403 L20.9797498,10.8347324 C20.9797498,10.4632257 20.6762114,10.1781609 20.309449,10.1781609 Z" id="Shape" opacity="0.529891304"></path>
                <path d="M24.7959961,10.9987627 L19.1103461,5.79967765 L19.1103461,2.25474209 C19.1103461,1.88572748 18.7827709,1.60073707 18.3766822,1.60073707 C17.996574,1.60073707 17.6821933,1.88576468 17.6821933,2.25474209 L17.6821933,4.49929266 L12.9921366,0.20360709 C12.8484267,0.071266201 12.6777151,0 12.5074936,0 C12.3110057,0 12.1405391,0.0737954816 11.9965841,0.20360709 L0.218991124,10.9274965 C-0.0635675125,11.1845161 -0.0822767587,11.5967888 0.218991124,11.8334625 C0.480879721,12.1082986 0.931984973,12.0904821 1.21454361,11.8334625 L12.5074936,1.57525829 L23.7741771,11.9301703 C23.8915389,12.0370696 24.0623322,12.0981443 24.2850866,12.0981443 C24.4815746,12.0981443 24.6517552,12.0370696 24.7959961,11.9301703 C25.0581298,11.6909673 25.0776969,11.2583488 24.7959961,10.9987627 Z" id="Shape" opacity="0.529891304"></path>
            </g>
        </g>
    </g>
</svg>