<?xml version="1.0" encoding="UTF-8"?>
<svg width="24px" height="18px" viewBox="0 0 24 18" version="1.1" xmlns="http://www.w3.org/2000/svg" xmlns:xlink="http://www.w3.org/1999/xlink">
    <!-- Generator: Sketch 52.4 (67378) - http://www.bohemiancoding.com/sketch -->
    <title>noun_325091_cc copy 2</title>
    <desc>Created with Sketch.</desc>
    <g id="Page-1" stroke="none" stroke-width="1" fill="none" fill-rule="evenodd" opacity="0.536941964">
        <g id="noun_325091_cc-copy-2" fill="#FFFFFF" fill-rule="nonzero">
            <g id="noun_325091_cc-copy">
                <path d="M23.9116309,0.143079336 C23.8237209,0.035025356 23.6878599,-0.012998635 23.5559949,0.003009362 C23.5240276,0.003009362 23.4960562,0.0110133605 23.4680848,0.019017359 L0.295801014,6.33017018 C0.123976871,6.37819417 0.00409956208,6.53027014 0.000103651782,6.70635811 C-0.00389225852,6.88244608 0.10799323,7.04252605 0.275821462,7.09855404 L8.75514312,9.87994352 L7.99592016,15.9549784 C7.97594061,16.1150584 8.0518629,16.2711363 8.19171976,16.3511763 C8.25565433,16.3871943 8.3235848,16.4032023 8.39151528,16.4032023 C8.4754294,16.4032023 8.56333942,16.3751883 8.63526581,16.3191603 L11.7360922,13.9379708 L14.4573071,17.827914 C14.5332294,17.935968 14.6531067,18 14.7849718,18 C14.7929636,18 14.8009554,18 14.8129431,18 C14.9528,17.991996 15.0766732,17.907954 15.1406078,17.783892 L23.9555859,0.575295255 C24.0275123,0.435225281 24.0115286,0.267141313 23.9116309,0.143079336 Z M21.1344732,1.47974709 L9.13475459,9.15958365 L1.79027147,6.7503801 L21.1344732,1.47974709 Z M8.90698771,15.1025525 L9.45842333,10.6803434 L11.2765625,13.2856449 L8.90698771,15.1025525 Z M14.7330249,16.8314162 L9.7581166,9.71185955 L22.5849887,1.50375908 L14.7330249,16.8314162 Z" id="Shape"></path>
            </g>
        </g>
    </g>
</svg>