<?xml version="1.0" encoding="UTF-8"?>
<svg width="16px" height="15px" viewBox="0 0 16 15" version="1.1" xmlns="http://www.w3.org/2000/svg" xmlns:xlink="http://www.w3.org/1999/xlink">
    <!-- Generator: Sketch 52.4 (67378) - http://www.bohemiancoding.com/sketch -->
    <title>noun_964580_cc copy 2</title>
    <desc>Created with Sketch.</desc>
    <g id="Page-1" stroke="none" stroke-width="1" fill="none" fill-rule="evenodd">
        <g id="noun_964580_cc-copy-2" transform="translate(1.000000, 0.000000)" fill="#4A90E2" fill-rule="nonzero" stroke="#4A90E2" stroke-width="0.2">
            <g id="noun_964580_cc-copy">
                <g id="Group" transform="translate(0.000000, 0.103711)">
                    <path d="M1.02439024,0.0588910569 C0.462784341,0.0588910569 0,0.529020488 0,1.09954146 L0,10.1185117 C0,10.6890309 0.462784341,11.1591621 1.02439024,11.1591621 L3.07317073,11.1591621 L3.07317073,13.2404629 C3.07317073,13.8109821 3.53595541,14.2811133 4.09756098,14.2811133 L12.9756098,14.2811133 C13.5372153,14.2811133 14,13.8109821 14,13.2404629 L14,4.22149268 C14,3.65097344 13.5372153,3.18084228 12.9756098,3.18084228 L10.9268293,3.18084228 L10.9268293,1.09954146 C10.9268293,0.529020488 10.4640449,0.0588910569 9.90243902,0.0588910569 L1.02439024,0.0588910569 Z M1.02439024,0.752657995 L9.90243902,0.752657995 C10.0975157,0.752657995 10.2439024,0.901368672 10.2439024,1.09954146 L10.2439024,3.18084228 L4.09756098,3.18084228 C3.53595541,3.18084228 3.07317073,3.65097344 3.07317073,4.22149268 L3.07317073,10.4653951 L1.02439024,10.4653951 C0.829313561,10.4653951 0.682926829,10.3166862 0.682926829,10.1185117 L0.682926829,1.09954146 C0.682926829,0.901368672 0.829313561,0.752657995 1.02439024,0.752657995 Z M4.09756098,3.87460921 L12.9756098,3.87460921 C13.1706866,3.87460921 13.3170732,4.02331989 13.3170732,4.22149268 L13.3170732,13.2404629 C13.3170732,13.4386374 13.1706866,13.5873463 12.9756098,13.5873463 L4.09756098,13.5873463 C3.90248412,13.5873463 3.75609756,13.4386374 3.75609756,13.2404629 L3.75609756,4.22149268 C3.75609756,4.02331989 3.90248412,3.87460921 4.09756098,3.87460921 Z M8.22239157,5.42998544 C8.06158198,5.44793733 7.94091892,5.58771965 7.94439834,5.75202717 L7.94439834,8.13018148 L5.60340269,8.13018148 C5.59365391,8.12971679 5.58388903,8.12971679 5.57414025,8.13018148 C5.46261004,8.13546973 5.36233177,8.2008092 5.31108809,8.3015814 C5.25984442,8.40235361 5.26542264,8.52324459 5.32572101,8.61870527 C5.38601937,8.71416594 5.49187458,8.76968953 5.60340269,8.76435596 L7.94439834,8.76435596 L7.94439834,11.1425103 C7.94280798,11.2568622 8.00194987,11.363226 8.0991778,11.4208735 C8.19640573,11.4785209 8.31665646,11.4785209 8.41388439,11.4208735 C8.51111231,11.363226 8.57025421,11.2568622 8.56866385,11.1425103 L8.56866385,8.76435596 L10.9096595,8.76435596 C11.0222247,8.76597156 11.1269266,8.70589091 11.1836733,8.60711968 C11.24042,8.50834846 11.24042,8.38618898 11.1836733,8.28741776 C11.1269266,8.18864653 11.0222247,8.12856587 10.9096595,8.13018148 L8.56866385,8.13018148 L8.56866385,5.75202717 C8.57060027,5.66070725 8.53368145,5.57297381 8.46736229,5.51129536 C8.40104313,5.44961691 8.31176484,5.41998393 8.22239157,5.42998544 Z" id="Shape"></path>
                </g>
            </g>
        </g>
    </g>
</svg>