<?xml version="1.0" encoding="UTF-8"?>
<svg width="15px" height="15px" viewBox="0 0 15 15" version="1.1" xmlns="http://www.w3.org/2000/svg" xmlns:xlink="http://www.w3.org/1999/xlink">
    <!-- Generator: Sketch 52.4 (67378) - http://www.bohemiancoding.com/sketch -->
    <title>noun_undefined_754601_000000 copy 2</title>
    <desc>Created with Sketch.</desc>
    <g id="Page-1" stroke="none" stroke-width="1" fill="none" fill-rule="evenodd">
        <g id="noun_undefined_754601_000000-copy-2" fill="#9B9B9B" fill-rule="nonzero">
            <g id="noun_undefined_754601_000000-copy" transform="translate(0.000000, -0.000000)">
                <path d="M9,6 L3,6 C2.8344,6 2.7,5.8656 2.7,5.7 C2.7,5.5344 2.8344,5.4 3,5.4 L9,5.4 C9.1656,5.4 9.3,5.5344 9.3,5.7 C9.3,5.8656 9.1656,6 9,6 Z" id="Shape"></path>
                <path d="M9,7.8 L3,7.8 C2.8344,7.8 2.7,7.6656 2.7,7.5 C2.7,7.3344 2.8344,7.2 3,7.2 L9,7.2 C9.1656,7.2 9.3,7.3344 9.3,7.5 C9.3,7.6656 9.1656,7.8 9,7.8 Z" id="Shape"></path>
                <path d="M6,9.6 L3,9.6 C2.8344,9.6 2.7,9.4656 2.7,9.3 C2.7,9.1344 2.8344,9 3,9 L6,9 C6.1656,9 6.3,9.1344 6.3,9.3 C6.3,9.4656 6.1656,9.6 6,9.6 Z" id="Shape"></path>
                <path d="M11.7,6.3 C11.8656,6.3 12,6.1656 12,6 L12,3.9 C12,3.861 11.9922,3.822 11.9766,3.7854 C11.9616,3.7488 11.9394,3.7158 11.9118,3.6882 L8.3118,0.0882 C8.2842,0.0606 8.2512,0.0384 8.214,0.0234 C8.178,0.0078 8.139,0 8.1,0 L0.9,0 C0.4038,0 0,0.4038 0,0.9 L0,13.5 C0,13.9962 0.4038,14.4 0.9,14.4 L11.1,14.4 C11.5962,14.4 12,13.9962 12,13.5 L12,12 C12,11.8344 11.8656,11.7 11.7,11.7 C11.5344,11.7 11.4,11.8344 11.4,12 L11.4,13.5 C11.4,13.6656 11.265,13.8 11.1,13.8 L0.9,13.8 C0.735,13.8 0.6,13.6656 0.6,13.5 L0.6,0.9 C0.6,0.7344 0.735,0.6 0.9,0.6 L7.8,0.6 L7.8,3.3 C7.8,3.7962 8.2038,4.2 8.7,4.2 L11.4,4.2 L11.4,6 C11.4,6.1656 11.5344,6.3 11.7,6.3 Z M8.4,3.3 L8.4,1.0242 L10.9758,3.6 L8.7,3.6 C8.535,3.6 8.4,3.4656 8.4,3.3 Z" id="Shape"></path>
                <path d="M14.3142,7.7982 L13.041,6.525 C12.9282,6.4122 12.729,6.4122 12.6168,6.525 L9.2226,9.9192 C9.1902,9.9516 9.1692,9.9894 9.1548,10.0302 C9.1536,10.0326 9.1512,10.0344 9.15,10.0368 L8.514,11.946 C8.478,12.0534 8.5062,12.1722 8.5866,12.2526 C8.6436,12.3096 8.7204,12.3402 8.799,12.3402 C8.8308,12.3402 8.8626,12.3354 8.8938,12.3252 L10.803,11.6886 C10.806,11.688 10.8078,11.685 10.8108,11.6838 C10.851,11.6694 10.8888,11.6472 10.92,11.6166 L14.3142,8.2224 C14.4318,8.1054 14.4318,7.9152 14.3142,7.7982 Z M9.5664,10.6872 L9.8592,10.9806 L10.1526,11.274 L9.273,11.5668 L9.5664,10.6872 Z M10.7082,10.98 L10.284,10.5558 L9.8598,10.131 L12.8298,7.1616 L13.6788,8.01 L10.7082,10.98 Z" id="Shape"></path>
            </g>
        </g>
    </g>
</svg>