<?xml version="1.0" encoding="UTF-8"?>
<svg width="34px" height="34px" viewBox="0 0 34 34" version="1.1" xmlns="http://www.w3.org/2000/svg" xmlns:xlink="http://www.w3.org/1999/xlink">
    <!-- Generator: Sketch 52.4 (67378) - http://www.bohemiancoding.com/sketch -->
    <title>Page 1 Copy 2</title>
    <desc>Created with Sketch.</desc>
    <defs>
        <path d="M0.0686375,16.8855404 C0.0686375,7.58474534 7.649575,0.0502608696 16.9989375,0.0502608696 C26.348725,0.0502608696 33.92945,7.58474534 33.92945,16.8855404 C33.92945,19.6304596 33.269,22.2216398 32.0979125,24.5108323 C32.7881125,27.7230932 32.0545625,24.3091553 33.92945,33.0355404 C24.6425625,31.7308696 31.8701125,32.7090559 24.9217875,31.7676149 C22.5579375,33.0144224 19.8613125,33.7206087 16.9989375,33.7206087 C7.649575,33.7206087 0.0686375,26.1861242 0.0686375,16.8855404 Z" id="path-1"></path>
        <path d="M0.0561,2.10293168 C0.0561,3.18649689 0.9398875,4.06479503 2.030225,4.06479503 C3.1205625,4.06479503 4.0045625,3.18649689 4.0045625,2.10293168 C4.0045625,1.01915528 3.1205625,0.140857143 2.030225,0.140857143 C0.9398875,0.140857143 0.0561,1.01915528 0.0561,2.10293168 Z" id="path-3"></path>
        <path d="M0.0527,2.10293168 C0.0527,3.18649689 0.9364875,4.06479503 2.026825,4.06479503 C3.1171625,4.06479503 4.0011625,3.18649689 4.0011625,2.10293168 C4.0011625,1.01915528 3.1171625,0.140857143 2.026825,0.140857143 C0.9364875,0.140857143 0.0527,1.01915528 0.0527,2.10293168 Z" id="path-5"></path>
    </defs>
    <g id="Page-1" stroke="none" stroke-width="1" fill="none" fill-rule="evenodd">
        <g id="Page-1-Copy-2">
            <g id="Page-1-Copy">
                <g id="Group-3" transform="translate(0.000000, 0.017950)">
                    <mask id="mask-2" fill="white">
                        <use xlink:href="#path-1"></use>
                    </mask>
                    <g id="Clip-2"></g>
                    <path d="M16.9991075,2.2304 C13.06297,2.2304 9.3622825,3.75427578 6.5793825,6.52136894 C3.7956325,9.28909565 2.262445,12.969754 2.262445,16.8852447 C2.262445,20.8009466 3.7956325,24.4818161 6.5793825,27.249754 C9.3622825,30.016636 13.06297,31.5405118 16.9991075,31.5405118 C19.402695,31.5405118 21.78652,30.9532199 23.8934575,29.8419901 L24.5177825,29.5125491 L25.2181825,29.6075801 C28.643895,30.0715429 28.64857,30.0723876 28.8893325,30.1114559 C29.0223575,30.1334186 29.282245,30.1756547 31.1282325,30.4381516 L29.7903325,24.2106609 L30.142445,23.5224248 C31.1996325,21.4562385 31.73577,19.2232199 31.73577,16.8852447 C31.73577,12.969754 30.2025825,9.28909565 27.4188325,6.52136894 C24.6359325,3.75427578 20.935245,2.2304 16.9991075,2.2304 M16.9991075,35.9005366 C11.8906075,35.9005366 7.0881075,33.923046 3.476245,30.331928 C-0.13583,26.7408099 -2.1250425,21.9653938 -2.1250425,16.8852447 C-2.1250425,11.805518 -0.13583,7.03010186 3.476245,3.43898385 C7.0881075,-0.151922981 11.8906075,-2.12962484 16.9991075,-2.12962484 C22.1076075,-2.12962484 26.9101075,-0.151922981 30.52197,3.43898385 C34.1338325,7.03010186 36.1232575,11.805518 36.1232575,16.8852447 C36.1232575,19.6500149 35.5439825,22.3034932 34.400095,24.7854932 L36.73037,35.6308596 L33.6225575,35.1943503 C28.85087,34.5238534 28.4137575,34.4524745 28.178945,34.4142509 C28.01277,34.3870087 27.8867575,34.3694807 25.3019075,34.0193441 C22.72832,35.2520025 19.8733825,35.9005366 16.9991075,35.9005366" id="Fill-1" fill="#FFFFFF" mask="url(#mask-2)"></path>
                </g>
                <g id="Group-7" transform="translate(22.950000, 14.800559)">
                    <mask id="mask-4" fill="white">
                        <use xlink:href="#path-3"></use>
                    </mask>
                    <g id="Clip-5"></g>
                    <polygon id="Fill-4" fill="#FFFFFF" mask="url(#mask-4)" points="-0.3096125 4.42802484 4.370275 4.42802484 4.370275 -0.222583851 -0.3096125 -0.222583851"></polygon>
                    <path d="M-0.2730625,4.39191304 L4.333725,4.39191304 L4.333725,-0.18626087 L-0.2730625,-0.18626087 L-0.2730625,4.39191304 Z M-0.346375,4.46455901 L4.4066125,4.46455901 L4.4066125,-0.258906832 L-0.346375,-0.258906832 L-0.346375,4.46455901 Z" id="Fill-6" fill="#FFFFFF" mask="url(#mask-4)"></path>
                </g>
                <g id="Group-10" transform="translate(7.012500, 14.800559)">
                    <mask id="mask-6" fill="white">
                        <use xlink:href="#path-5"></use>
                    </mask>
                    <g id="Clip-9"></g>
                    <polygon id="Fill-8" fill="#FFFFFF" mask="url(#mask-6)" points="-0.3130125 4.42802484 4.366875 4.42802484 4.366875 -0.222583851 -0.3130125 -0.222583851"></polygon>
                </g>
                <path d="M14.8054063,16.9035118 C14.8054063,18.1074497 15.7875813,19.0835242 16.9990437,19.0835242 C18.2105063,19.0835242 19.1926813,18.1074497 19.1926813,16.9035118 C19.1926813,15.6993627 18.2105063,14.7232882 16.9990437,14.7232882 C15.7875813,14.7232882 14.8054063,15.6993627 14.8054063,16.9035118" id="Fill-11" fill="#FFFFFF"></path>
            </g>
        </g>
    </g>
</svg>