<?xml version="1.0" encoding="UTF-8"?>
<svg width="22px" height="22px" viewBox="0 0 22 22" version="1.1" xmlns="http://www.w3.org/2000/svg" xmlns:xlink="http://www.w3.org/1999/xlink">
    <!-- Generator: Sketch 52.4 (67378) - http://www.bohemiancoding.com/sketch -->
    <title>Search Copy 2</title>
    <desc>Created with Sketch.</desc>
    <g id="Page-1" stroke="none" stroke-width="1" fill="none" fill-rule="evenodd">
        <g id="Search-Copy-2" fill="#112233">
            <path d="M9.12805557,2.31712085 C12.7070789,2.31712085 15.6191517,5.26242766 15.6191517,8.88229658 C15.6191517,12.5021655 12.7070789,15.4474723 9.12805557,15.4474723 C5.54903224,15.4474723 2.63695946,12.5021655 2.63695946,8.88229658 C2.63695946,5.26242766 5.54903224,2.31712085 9.12805557,2.31712085 M21.0264532,20.0378675 L15.8500833,14.5924648 C17.1806496,12.9920662 17.9101268,10.9784983 17.9101268,8.88229658 C17.9101268,3.98497566 13.9701165,0 9.12805557,0 C4.28599466,0 0.345984357,3.98497566 0.345984357,8.88229658 C0.345984357,13.7796175 4.28599466,17.7645932 9.12805557,17.7645932 C10.9463295,17.7645932 12.6787335,17.2097658 14.1593637,16.1574489 L19.3757506,21.6441685 C19.5933432,21.8735196 19.8868014,22 20.2011019,22 C20.4987286,22 20.7805152,21.8853244 20.994773,21.6762102 C21.4499668,21.2335288 21.4649732,20.4990993 21.0264532,20.0378675" id="Search-Copy"></path>
        </g>
    </g>
</svg>