<?xml version="1.0" encoding="UTF-8"?>
<svg width="25px" height="25px" viewBox="0 0 25 25" version="1.1" xmlns="http://www.w3.org/2000/svg" xmlns:xlink="http://www.w3.org/1999/xlink">
    <!-- Generator: Sketch 52.4 (67378) - http://www.bohemiancoding.com/sketch -->
    <title>settings copy 4</title>
    <desc>Created with Sketch.</desc>
    <defs>
        <filter x="0.0%" y="0.0%" width="100.0%" height="100.0%" filterUnits="objectBoundingBox" id="filter-1">
            <feGaussianBlur stdDeviation="0" in="SourceGraphic"></feGaussianBlur>
        </filter>
    </defs>
    <g id="Page-1" stroke="none" stroke-width="1" fill="none" fill-rule="evenodd" opacity="0.55">
        <g id="settings-copy-4" fill="#FFFFFF" fill-rule="nonzero">
            <g id="settings-copy-3" filter="url(#filter-1)">
                <path d="M17.5057563,19.5657017 C17.43498,19.7426323 17.2327621,19.8235149 17.0608768,19.7527426 L15.9183453,19.2775575 C15.7161273,19.1916197 15.4835767,19.262392 15.3622459,19.4443778 C14.8465901,20.2178175 14.1893817,20.8749884 13.415898,21.3906149 C13.2339018,21.5119387 13.1631256,21.7444762 13.2490682,21.9466826 L13.719225,23.0891491 C13.7900012,23.2610245 13.7091141,23.463231 13.5321733,23.5340032 L12.2885329,24.0546848 C12.1166476,24.1254571 11.9144296,24.0445745 11.8436533,23.8676439 L11.3684411,22.7251774 C11.2824985,22.522971 11.0701696,22.4067023 10.8578408,22.4521987 C9.94785994,22.6341845 9.02271275,22.6341845 8.10767647,22.4521987 C7.89534761,22.4117574 7.6779633,22.522971 7.59707611,22.7251774 L7.1218639,23.8676439 C7.05108761,24.0395194 6.84886965,24.1254571 6.67698438,24.0546848 L5.4333439,23.5390584 C5.34740127,23.5036723 5.28168043,23.4379552 5.24629229,23.3520174 C5.21090414,23.2660797 5.21090414,23.1750868 5.24629229,23.0891491 L5.7215045,21.9466826 C5.80744714,21.7444762 5.73667085,21.5119387 5.55467468,21.3906149 C4.78119097,20.8749884 4.12398259,20.2178175 3.60832678,19.4443778 C3.48699601,19.262392 3.25444535,19.1916197 3.05222738,19.2775575 L1.90969589,19.7527426 C1.73275517,19.8235149 1.53559266,19.7426323 1.46481637,19.5657017 L0.949160566,18.322132 C0.878384278,18.1502565 0.959271464,17.9480501 1.13621218,17.8772778 L2.27874367,17.4020927 C2.48096164,17.3161549 2.59723697,17.1038381 2.55173793,16.8915214 C2.36974176,15.9815923 2.36974176,15.0564978 2.55173793,14.1415137 C2.59218152,13.9291969 2.48096164,13.711825 2.27874367,13.6309424 L1.13621218,13.1557572 C1.05026955,13.1203711 0.984548709,13.054654 0.949160566,12.9687162 C0.913772422,12.8827785 0.913772422,12.7917856 0.949160566,12.7058479 L1.46481637,11.4622782 C1.50020452,11.3763405 1.56592535,11.3106234 1.65186799,11.2752372 C1.73781062,11.2398511 1.82880871,11.2398511 1.91475134,11.2752372 L3.05728283,11.7504224 C3.2595008,11.8363601 3.49205146,11.7655879 3.61338223,11.5836021 C4.12903804,10.8101624 4.78624642,10.1529914 5.55973013,9.63736499 C5.7417263,9.51604112 5.81250259,9.2835037 5.72655995,9.08129726 L5.25134774,7.93883081 C5.21595959,7.85289307 5.21595959,7.76190017 5.25134774,7.67596243 C5.28673588,7.59002469 5.35245672,7.52430759 5.43839935,7.48892146 L6.68203983,6.97329502 C6.8539251,6.90252276 7.05614306,6.98340534 7.12691935,7.16033598 L7.60213156,8.30280242 C7.69818509,8.53533984 7.9661239,8.64655339 8.19867455,8.55050532 C8.43122521,8.45445726 8.54244509,8.18653372 8.44639156,7.9539963 L7.97117934,6.81152986 C7.70324054,6.16952438 6.97020043,5.86621471 6.32815839,6.12908309 L5.08451792,6.64470954 C4.77613552,6.77108857 4.53347397,7.01373631 4.40203229,7.3271563 C4.27564606,7.63552114 4.27564606,7.9792721 4.40203229,8.2926921 L4.73569193,9.09646274 C4.09870535,9.56659273 3.5375505,10.1277156 3.06233828,10.7697211 L2.25852188,10.4360805 C1.95013948,10.3097014 1.60636895,10.3097014 1.2929311,10.4360805 C0.984548709,10.5624595 0.741887153,10.8051072 0.610445477,11.1185272 L0.0947896703,12.3620969 C-0.0315965568,12.6704617 -0.0315965568,13.0142127 0.0947896703,13.3276327 C0.221175897,13.6359975 0.463837454,13.8786453 0.777275297,14.0100795 L1.5810917,14.3437201 C1.45976092,15.1323253 1.45976092,15.9209304 1.5810917,16.7095356 L0.777275297,17.0431762 C0.135233263,17.3110998 -0.168093682,18.0440981 0.0947896703,18.6861036 L0.610445477,19.9145078 C0.873328829,20.5565133 1.6114244,20.8598229 2.25346643,20.5969546 L3.05728283,20.2633139 C3.5274396,20.9002642 4.08859445,21.4613871 4.73063648,21.9365723 L4.39697684,22.7403429 C4.27059061,23.0487078 4.27059061,23.3924587 4.39697684,23.7058787 C4.52336307,24.0142436 4.76602462,24.2568913 5.07946247,24.3883255 L6.32310294,24.9039519 C6.96514498,25.1668203 7.70324054,24.8635106 7.9661239,24.2215052 L8.29978353,23.4177345 C9.08843359,23.5390584 9.87708365,23.5390584 10.6657337,23.4177345 L10.9993933,24.2215052 C11.2016113,24.7068006 11.6717681,25 12.1621466,25 C12.323921,25 12.4856954,24.969669 12.6424143,24.9039519 L13.8860548,24.3883255 C14.5280968,24.1204019 14.8314238,23.3874036 14.5685404,22.7453981 L14.2348808,21.9416274 C14.8718673,21.4714975 15.4330222,20.9103746 15.9082344,20.2683691 L16.7120508,20.6020097 C17.3540928,20.8699333 18.0921884,20.5615684 18.3550718,19.919563 L18.8707276,18.6759933 C18.9971138,18.3676285 18.9971138,18.0238775 18.8707276,17.7104575 C18.7443413,17.4020927 18.5016798,17.1594449 18.1882419,17.0280107 L17.0457105,16.5528256 C16.8131598,16.4567775 16.545221,16.5679911 16.4491675,16.8005285 C16.3531139,17.0330659 16.4643338,17.3009894 16.6968845,17.3970375 L17.839416,17.8722227 C17.9253586,17.9076088 17.9910794,17.9733259 18.0264676,18.0592636 C18.0618557,18.1452014 18.0618557,18.2361943 18.0264676,18.322132 L17.5057563,19.5657017 Z" id="Shape"></path>
                <path d="M9.0347423,12.0851394 C9.27733998,12.0851394 9.47141813,11.8862004 9.47141813,11.6435919 C9.47141813,11.4009834 9.27248803,11.2068966 9.02989035,11.2068966 C9.02989035,11.2068966 9.02989035,11.2068966 9.02503839,11.2068966 C7.98672032,11.2166009 7.01632959,11.6241832 6.28853654,12.3617131 C5.5607435,13.0992431 5.1628833,14.0793815 5.17258721,15.1128938 C5.18229112,16.1512583 5.58985522,17.1216924 6.32735217,17.849518 C7.05999717,18.5724914 8.02553594,18.9655172 9.04929816,18.9655172 C9.05900207,18.9655172 9.06870598,18.9655172 9.07840988,18.9655172 C10.116728,18.9558129 11.0871187,18.5482306 11.8149117,17.8107007 C12.5427048,17.0731707 12.940565,16.0930323 12.9308611,15.05952 C12.9308611,14.8169114 12.731931,14.6228246 12.4893333,14.6228246 C12.4893333,14.6228246 12.4893333,14.6228246 12.4844813,14.6228246 C12.2418837,14.6228246 12.0478055,14.8217636 12.0478055,15.0643721 C12.0526575,15.8649803 11.7469844,16.6219189 11.1841578,17.194475 C10.6213311,17.7670311 9.86927833,18.0824222 9.06870598,18.0872744 C9.05900207,18.0872744 9.05415011,18.0872744 9.04444621,18.0872744 C8.25357777,18.0872744 7.50152495,17.7815876 6.93869833,17.223588 C6.3661678,16.6607362 6.05079082,15.9086498 6.04593886,15.1080417 C6.04108691,14.3074335 6.34675999,13.5504949 6.90958661,12.9779388 C7.48211714,12.4102348 8.23416995,12.0899916 9.0347423,12.0851394 Z" id="Shape"></path>
                <path d="M23.9550137,8.85796728 C24.5282343,8.85796728 25,8.39175848 25,7.81406496 L25,6.83603997 C25,6.26341394 24.5333071,5.79213764 23.9550137,5.79213764 L23.422375,5.79213764 C23.2854108,5.28538894 23.0875736,4.79891019 22.8237906,4.34790385 L23.2042468,3.96784232 C23.6100667,3.56244336 23.6100667,2.89860257 23.2042468,2.49320361 L22.5092801,1.79895789 C22.3114429,1.60132589 22.04766,1.49490867 21.7737315,1.49490867 C21.4947303,1.49490867 21.2309474,1.60132589 21.0381829,1.79895789 L20.6577267,2.17901941 C20.2011793,1.91551009 19.7192681,1.71281061 19.2119932,1.58105595 L19.2119932,1.04390232 C19.2119932,0.471276291 18.7453002,0 18.1670068,0 L17.1828935,0 C16.6096728,0 16.1379072,0.466208804 16.1379072,1.04390232 L16.1379072,1.58105595 C15.6306322,1.71787809 15.1436483,1.91551009 14.6921736,2.17901941 L14.3117175,1.79895789 C14.1138802,1.60132589 13.8500973,1.49490867 13.5761688,1.49490867 C13.2971676,1.49490867 13.0333847,1.60132589 12.8406202,1.79895789 L12.1456535,2.49320361 C11.7398336,2.89860257 11.7398336,3.56244336 12.1456535,3.96784232 L12.5261097,4.34790385 C12.2623268,4.80397768 12.0594168,5.28538894 11.9275253,5.79213764 L11.3898139,5.79213764 C10.8165933,5.79213764 10.3448276,6.25834645 10.3448276,6.83603997 L10.3448276,7.81913245 C10.3448276,8.39175848 10.8115205,8.86303477 11.3898139,8.86303477 L11.9275253,8.86303477 C12.0644896,9.36978347 12.2623268,9.85626222 12.5261097,10.3072686 L12.1456535,10.6873301 C11.7398336,11.0927291 11.7398336,11.7565698 12.1456535,12.1619688 L12.8406202,12.8562145 C13.0384574,13.0538465 13.3022404,13.1602637 13.5761688,13.1602637 C13.85517,13.1602637 14.118953,13.0538465 14.3117175,12.8562145 L14.6921736,12.476153 C15.1487211,12.7396623 15.6306322,12.9423618 16.1379072,13.0741165 L16.1379072,13.6112701 C16.1379072,14.1838961 16.6046001,14.6551724 17.1828935,14.6551724 L18.1670068,14.6551724 C18.7402275,14.6551724 19.2119932,14.1889636 19.2119932,13.6112701 L19.2119932,13.069049 C19.7192681,12.9322268 20.206252,12.7345948 20.6577267,12.4710855 L21.0381829,12.851147 C21.2360201,13.048779 21.4998031,13.1551963 21.7737315,13.1551963 C22.0527327,13.1551963 22.3165157,13.048779 22.5092801,12.851147 L23.2042468,12.1569013 C23.6100667,11.7515024 23.6100667,11.0876616 23.2042468,10.6822626 L22.8237906,10.3022011 C23.0875736,9.84612725 23.2904835,9.36471598 23.422375,8.85796728 L23.9550137,8.85796728 Z M22.6056624,8.31067869 C22.4788437,8.95931702 22.2252062,9.56741546 21.8548955,10.1197715 C21.7331495,10.3022011 21.7585133,10.5454405 21.9106957,10.6974651 L22.5498621,11.3359684 C22.6005896,11.3866433 22.6005896,11.4626556 22.5498621,11.5133305 L21.8548955,12.2075762 C21.824459,12.2379811 21.7889498,12.2430486 21.7686588,12.2430486 C21.743295,12.2430486 21.7128585,12.2379811 21.682422,12.2075762 L21.0432556,11.5690728 C20.8860004,11.4119807 20.6425084,11.3917108 20.4649622,11.5133305 C19.9120326,11.883257 19.3033027,12.1315639 18.6539908,12.2633185 C18.4409353,12.3038584 18.2836801,12.496423 18.2836801,12.7143249 L18.2836801,13.6163376 C18.2836801,13.6822149 18.2278798,13.7379573 18.1619341,13.7379573 L17.1778207,13.7379573 C17.111875,13.7379573 17.0560748,13.6822149 17.0560748,13.6163376 L17.0560748,12.7143249 C17.0560748,12.496423 16.8988195,12.3089259 16.6857641,12.2633185 C16.0364522,12.1366314 15.4277223,11.883257 14.8747926,11.5133305 C14.7987014,11.4626556 14.7073919,11.4373182 14.6211552,11.4373182 C14.5044819,11.4373182 14.3827359,11.4829255 14.2964992,11.5741403 L13.6573328,12.2126437 C13.6268963,12.2430486 13.5913871,12.2481161 13.5710961,12.2481161 C13.5457323,12.2481161 13.5152958,12.2430486 13.4848593,12.2126437 L12.7898927,11.518398 C12.7391652,11.4677231 12.7391652,11.3917108 12.7898927,11.3410359 L13.4290591,10.7025326 C13.5863143,10.5454405 13.6066053,10.3022011 13.4848593,10.124839 C13.1145486,9.57248295 12.8659839,8.96438451 12.7340925,8.31574617 C12.6935105,8.10291172 12.500746,7.94581962 12.2826178,7.94581962 L11.3796684,7.94581962 C11.3137227,7.94581962 11.2579224,7.89007726 11.2579224,7.82419993 L11.2579224,6.83603997 C11.2579224,6.77016264 11.3137227,6.71442028 11.3796684,6.71442028 L12.2826178,6.71442028 C12.500746,6.71442028 12.6884377,6.55732818 12.7340925,6.34449373 C12.8609112,5.69585539 13.1145486,5.08775695 13.4848593,4.53540087 C13.6066053,4.35297134 13.5812416,4.10973196 13.4290591,3.95770735 L12.7898927,3.31920399 C12.7594562,3.28879907 12.7543835,3.25332666 12.7543835,3.23305671 C12.7543835,3.20771927 12.7594562,3.17731435 12.7898927,3.14690943 L13.4797866,2.44759622 C13.5102231,2.4171913 13.5457323,2.41212381 13.5660233,2.41212381 C13.5913871,2.41212381 13.6218236,2.4171913 13.6522601,2.44759622 L14.2914265,3.08609959 C14.4486817,3.24319168 14.6921736,3.26346163 14.8697199,3.14184194 C15.4226495,2.77191539 16.0313794,2.52360853 16.6806913,2.39185387 C16.8937468,2.35131397 17.051002,2.15874946 17.051002,1.94084752 L17.051002,1.04390232 C17.051002,0.978024992 17.1068023,0.922282635 17.172748,0.922282635 L18.1568613,0.922282635 C18.2228071,0.922282635 18.2786073,0.978024992 18.2786073,1.04390232 L18.2786073,1.94591501 C18.2786073,2.16381695 18.4358625,2.35131397 18.648918,2.39692135 C19.2982299,2.52360853 19.9069598,2.77698288 20.4598895,3.14690943 C20.6425084,3.26852912 20.8860004,3.24319168 21.0381829,3.09116707 L21.6773493,2.45266371 C21.7077858,2.42225879 21.743295,2.4171913 21.763586,2.4171913 C21.7889498,2.4171913 21.8193863,2.42225879 21.8498228,2.45266371 L22.5447894,3.14690943 C22.5955169,3.1975843 22.5955169,3.2735966 22.5447894,3.32427147 L21.905623,3.96277484 C21.7483678,4.11986693 21.7280768,4.36310631 21.8498228,4.54046836 C22.2201334,5.09282444 22.4686982,5.70092288 22.6005896,6.34956122 C22.6411716,6.56239567 22.8339361,6.71948777 23.0520643,6.71948777 L23.9550137,6.71948777 C24.0209594,6.71948777 24.0767596,6.77523012 24.0767596,6.84110745 L24.0767596,7.82419993 C24.0767596,7.89007726 24.0209594,7.94581962 23.9550137,7.94581962 L23.0520643,7.94581962 C22.8339361,7.94075213 22.6462444,8.09277674 22.6056624,8.31067869 Z" id="Shape"></path>
                <path d="M17.6724138,4.31034483 C16.0054009,4.31034483 14.6551724,5.66576651 14.6551724,7.32758621 C14.6551724,8.99459909 16.0105941,10.3448276 17.6724138,10.3448276 C19.3394267,10.3448276 20.6896552,8.9894059 20.6896552,7.32758621 C20.6896552,5.66576651 19.3342335,4.31034483 17.6724138,4.31034483 Z M17.6724138,9.40486082 C16.5247196,9.40486082 15.5951392,8.47528043 15.5951392,7.32758621 C15.5951392,6.17989198 16.5247196,5.25031159 17.6724138,5.25031159 C18.820108,5.25031159 19.7496884,6.17989198 19.7496884,7.32758621 C19.7496884,8.47528043 18.8149148,9.40486082 17.6724138,9.40486082 Z" id="Shape"></path>
            </g>
        </g>
    </g>
</svg>