<?xml version="1.0" encoding="UTF-8"?>
<svg width="25px" height="19px" viewBox="0 0 25 19" version="1.1" xmlns="http://www.w3.org/2000/svg" xmlns:xlink="http://www.w3.org/1999/xlink">
    <!-- Generator: Sketch 52.4 (67378) - http://www.bohemiancoding.com/sketch -->
    <title>bar-chart-2 copy 2</title>
    <desc>Created with Sketch.</desc>
    <defs>
        <filter x="0.0%" y="0.0%" width="100.0%" height="100.0%" filterUnits="objectBoundingBox" id="filter-1">
            <feGaussianBlur stdDeviation="0" in="SourceGraphic"></feGaussianBlur>
        </filter>
    </defs>
    <g id="Page-1" stroke="none" stroke-width="1" fill="none" fill-rule="evenodd" opacity="0.55">
        <g id="bar-chart-2-copy-2" fill="#FFFFFF" fill-rule="nonzero">
            <g id="bar-chart-2-copy" filter="url(#filter-1)">
                <path d="M24.4843213,17.9598901 L23.3532832,17.9598901 L23.3532832,1.39801175 C23.3532832,0.627134278 22.7313747,0 21.9670358,0 L19.4389725,0 C18.674582,0 18.0527251,0.627186284 18.0527251,1.39801175 L18.0527251,17.9598901 L15.1808073,17.9598901 L15.1808073,8.90183278 C15.1808073,8.13095531 14.5589503,7.50382104 13.7945598,7.50382104 L11.2664966,7.50382104 C10.502106,7.50382104 9.88024909,8.13100732 9.88024909,8.90183278 L9.88024909,17.9598901 L7.0083313,17.9598901 L7.0083313,13.2687863 C7.0083313,12.4979088 6.3864228,11.8707746 5.62208384,11.8707746 L3.09396903,11.8707746 C2.3295785,11.8707746 1.70772157,12.4979608 1.70772157,13.2687863 L1.70772157,17.9598901 L0.515678695,17.9598901 C0.230869352,17.9598901 0,18.1927187 0,18.479945 C0,18.7671714 0.230869352,19 0.515678695,19 L24.4843213,19 C24.7691306,19 25,18.7671714 25,18.479945 C25,18.1927187 24.7691306,17.9598901 24.4843213,17.9598901 Z M5.97687078,17.9598901 L2.73902739,17.9598901 L2.73902739,13.2687863 C2.73902739,13.0714254 2.8982174,12.9108845 3.09391747,12.9108845 L5.6219807,12.9108845 C5.81768077,12.9108845 5.97687078,13.0714254 5.97687078,13.2687863 L5.97687078,17.9598901 Z M14.1493983,17.9598901 L10.9115549,17.9598901 L10.9115549,8.90183278 C10.9115549,8.70447193 11.0707449,8.54393096 11.266445,8.54393096 L13.7945082,8.54393096 C13.9901567,8.54393096 14.1493983,8.70447193 14.1493983,8.90183278 L14.1493983,17.9598901 Z M22.3219258,17.9598901 L19.0840824,17.9598901 L19.0840824,1.39801175 C19.0840824,1.20065089 19.2432725,1.04010992 19.4389725,1.04010992 L21.9670358,1.04010992 C22.1627358,1.04010992 22.3219258,1.20065089 22.3219258,1.39801175 L22.3219258,17.9598901 Z" id="Shape"></path>
            </g>
        </g>
    </g>
</svg>