<?xml version="1.0" encoding="UTF-8"?>
<svg width="26px" height="21px" viewBox="0 0 26 21" version="1.1" xmlns="http://www.w3.org/2000/svg" xmlns:xlink="http://www.w3.org/1999/xlink">
    <!-- Generator: Sketch 52.4 (67378) - http://www.bohemiancoding.com/sketch -->
    <title>Group 2 Copy 2</title>
    <desc>Created with Sketch.</desc>
    <defs>
        <filter x="-4.0%" y="0.0%" width="104.0%" height="104.8%" filterUnits="objectBoundingBox" id="filter-1">
            <feGaussianBlur stdDeviation="0" in="SourceGraphic"></feGaussianBlur>
        </filter>
    </defs>
    <g id="Page-1" stroke="none" stroke-width="1" fill="none" fill-rule="evenodd" opacity="0.55">
        <g id="Group-2-Copy-2" transform="translate(1.000000, 0.000000)" stroke="#FFFFFF">
            <g id="Group-2-Copy" filter="url(#filter-1)">
                <path d="M24.4496042,13.665423 C24.4496042,12.985522 23.867181,12.4444444 23.1332139,12.4444444 L15.933864,12.4444444 C15.1998448,12.4444444 14.5833333,12.985522 14.5833333,13.665423 L14.5833333,16.0803076 L14.5833333,20.1388248 L15.5279374,19.3480971 C15.5716831,19.3111066 15.6207012,19.277259 15.6564599,19.2466995 C16.0878091,18.8785346 16.1981652,18.8196882 16.7608036,18.8304227 C16.8375413,18.8319217 16.9289479,18.8324536 17.0402958,18.8324536 L23.1332139,18.8324536 C23.867181,18.8324536 24.4496042,18.2818019 24.4496042,17.6019493 L24.4496042,13.665423 Z" id="Path" stroke-width="0.85"></path>
                <path d="M11.3865173,11.9829523 C11.3012223,11.875146 10.9867432,11.4616422 10.6815353,10.8572622 L10.6644763,10.8232958 C10.662622,10.819973 10.6611386,10.816281 10.6592844,10.8129582 C10.618862,10.7321034 10.5791812,10.6464491 10.5391296,10.5578411 L10.5205872,10.5161215 C10.4998197,10.4692332 10.4790523,10.420868 10.4582848,10.3702876 C10.4512387,10.3529352 10.4441925,10.3355828 10.4371464,10.3178612 C10.4174915,10.2691269 10.3978365,10.2196541 10.3766982,10.1627973 C10.3385009,10.062375 10.3036411,9.95752224 10.2695231,9.8500851 L10.2428221,9.76295395 C10.2079624,9.64850201 10.1756986,9.53146568 10.1475141,9.41073734 C10.1467724,9.40815294 10.1460307,9.40593774 10.1456599,9.40335335 L10.1393555,9.37640176 L10.1122836,9.25715023 L9.98545355,9.17555707 C9.77036171,9.03784555 9.64204829,8.80672647 9.64204829,8.55714741 L9.64204829,7.08034822 C9.64204829,6.87322713 9.73031012,6.67976644 9.89051646,6.53577852 L10.0128963,6.42575698 L10.0128963,4.12638063 L10.0128963,3.99568391 L10.0028834,3.98793071 C9.98990373,3.72173766 10.006221,2.9043293 10.6047697,2.22426328 C11.2192649,1.52684486 12.2680231,1.17315145 13.7213764,1.17315145 C15.1695379,1.17315145 16.216071,1.52426046 16.8313078,2.21724848 C17.5533489,3.02985723 17.4343067,4.06952387 17.4331942,4.07838466 L17.4298565,6.42575698 L17.5522364,6.53577852 C17.7124427,6.67976644 17.8007045,6.87322713 17.8007045,7.08034822 L17.8007045,8.55714741 C17.8007045,8.87945883 17.5889503,9.16152748 17.2733587,9.25825783 C17.0779218,9.31806819 16.9681508,9.52518928 17.028599,9.71975757 C17.0886764,9.91432587 17.2956096,10.0228706 17.492159,9.96342944 C18.1203755,9.77070714 18.5424006,9.20546225 18.5424006,8.55714741 L18.5424006,7.08034822 C18.5424006,6.72480881 18.4092661,6.3799762 18.1715526,6.11119875 L18.1715526,4.14742502 C18.1926909,3.94436513 18.2739066,2.735605 17.3957385,1.73839634 C16.6340167,0.873361215 15.3976094,0.435121055 13.7213764,0.435121055 C12.0451434,0.435121055 10.8087361,0.873730415 10.0470143,1.73839634 C9.51484743,2.34277641 9.33609868,3.02358084 9.28158403,3.51240137 C8.64557969,3.18492115 7.89683755,3.01915044 7.04611221,3.01915044 C3.19337223,3.01915044 2.96938003,6.28841465 2.96678409,6.34194862 L2.96678409,8.0325145 C2.72647458,8.29353875 2.59593608,8.59406739 2.59593608,8.89275003 L2.59593608,10.1679661 C2.59593608,10.5663327 2.77505567,10.9377477 3.08211782,11.1888036 C3.38769658,12.3370149 4.14051805,13.2046345 4.43348798,13.5092243 L4.43348798,14.5219393 C4.43348798,14.8124996 4.27439418,15.0790618 3.99922495,15.228957 L1.53271483,16.7696277 C0.587052402,17.2828154 0,18.2674713 0,19.3388891 L0,20.7407407 L5.19187216,20.7407407 L5.93356818,20.7407407 L10.0128963,20.7407407 C10.2179753,20.7407407 10.3837443,20.5757084 10.3837443,20.3715409 C10.3837443,20.1673735 10.2179753,20.0023411 10.0128963,20.0023411 L5.93356818,20.0023411 L5.93356818,19.176072 C5.93356818,18.2268593 6.45349709,17.3544402 7.29013021,16.9003244 L10.599207,15.1037982 C11.1525122,14.8029004 11.4962884,14.2258411 11.4962884,13.5985706 L11.4962884,12.1147567 L11.4102516,12.0121191 C11.4091391,12.0113807 11.3998679,11.9995663 11.3865173,11.9829523 Z M10.7545923,13.5985706 C10.7545923,13.9559561 10.5587846,14.2838055 10.2439346,14.4551142 L9.26267078,14.9878695 L9.02199042,15.1185662 L6.93522866,16.2516404 C5.85976943,16.8360837 5.19187216,17.9562359 5.19187216,19.176072 L5.19187216,20.0023411 L0.741696023,20.0023411 L0.741696023,19.3388891 C0.741696023,18.5377255 1.18078007,17.8015411 1.90690047,17.4068666 L4.3734106,15.8661958 C4.867751,15.5977876 5.17481315,15.083123 5.17481315,14.5219393 L5.1744423,13.1965121 L5.05762518,13.0868597 C5.04761228,13.0779989 4.06078572,12.143185 3.77115343,10.8879057 L3.73740626,10.7417026 L3.61057624,10.6604787 C3.4396153,10.5504571 3.3376321,10.3662264 3.3376321,10.1679661 L3.3376321,8.89275003 C3.3376321,8.7602073 3.42811902,8.60182058 3.58647112,8.45930946 L3.70848011,8.34928792 L3.70773842,6.36336221 C3.71478453,6.25703267 3.90725465,3.75718084 7.04611221,3.75718084 C7.93392235,3.75718084 8.6811811,3.96134832 9.27120028,4.3641453 L9.27120028,6.11082955 C9.03348671,6.379607 8.90035227,6.72443961 8.90035227,7.07997902 L8.90035227,8.55677821 C8.90035227,8.82112526 8.9786012,9.07107353 9.10839801,9.29222421 C9.19925577,9.44691892 9.31125187,9.58943004 9.45551174,9.70462038 C9.45810768,9.71421958 9.46107446,9.72308037 9.4636704,9.73231037 C9.48517959,9.81390352 9.50743047,9.89438908 9.53116474,9.97192103 L9.56194512,10.0723434 C9.56787869,10.0908034 9.57455396,10.1100018 9.58048752,10.1284617 C9.59272551,10.1661201 9.60459264,10.2034093 9.61757233,10.2403293 C9.63982321,10.3056777 9.66355748,10.372872 9.69100023,10.4459736 C9.70212567,10.4751404 9.71399281,10.5006151 9.72511825,10.5290435 C9.75664033,10.6095291 9.78853326,10.6874302 9.82190958,10.7642238 C9.828214,10.7786226 9.83414756,10.7952366 9.84045198,10.8096354 L9.86270286,10.8598465 C9.87271576,10.8823677 9.8830995,10.9023045 9.8931124,10.9244565 C9.92797211,11.0001425 9.96246098,11.0739824 9.99769154,11.145238 C10.0043668,11.1585292 10.0106712,11.1736664 10.0173465,11.1869576 L10.0451601,11.2408607 C10.0522062,11.2545211 10.0588815,11.2652279 10.0659276,11.2785191 C10.1260049,11.3937095 10.1849698,11.5015158 10.2435638,11.6023073 C10.2513516,11.6159677 10.2591394,11.6296281 10.2669272,11.6432885 C10.3303422,11.7510949 10.3911613,11.8500404 10.4490136,11.9390176 C10.4516095,11.9430788 10.4545763,11.9475092 10.4571722,11.9519396 C10.5795521,12.1398622 10.6856146,12.287173 10.7545923,12.3768885 L10.7545923,13.5985706 Z" id="Shape" stroke-width="0.15" fill="#FFFFFF" fill-rule="nonzero"></path>
            </g>
        </g>
    </g>
</svg>