<?xml version="1.0" encoding="UTF-8"?>
<svg width="19px" height="5px" viewBox="0 0 19 5" version="1.1" xmlns="http://www.w3.org/2000/svg" xmlns:xlink="http://www.w3.org/1999/xlink">
    <!-- Generator: Sketch 52.4 (67378) - http://www.bohemiancoding.com/sketch -->
    <title>Group 6 Copy 2</title>
    <desc>Created with Sketch.</desc>
    <g id="Page-1" stroke="none" stroke-width="1" fill="none" fill-rule="evenodd">
        <g id="Group-6-Copy-2" fill="#4A90E2">
            <g id="Group-6-Copy">
                <g id="Group-9">
                    <path d="M16.5,5 C15.1192511,5 14,3.88074888 14,2.5 C14,1.11925112 15.1192511,0 16.5,0 C17.8807489,0 19,1.11925112 19,2.5 C19,3.88074888 17.8807489,5 16.5,5" id="Fill-100"></path>
                    <path d="M9.5,5 C8.11925112,5 7,3.88074888 7,2.5 C7,1.11925112 8.11925112,0 9.5,0 C10.8807489,0 12,1.11925112 12,2.5 C12,3.88074888 10.8807489,5 9.5,5" id="Fill-102"></path>
                    <path d="M0,2.5 C0,1.11925112 1.11925112,0 2.5,0 C3.88074888,0 5,1.11925112 5,2.5 C5,3.88074888 3.88074888,5 2.5,5 C1.11925112,5 0,3.88074888 0,2.5 Z" id="Fill-104"></path>
                </g>
            </g>
        </g>
    </g>
</svg>