<?xml version="1.0" encoding="UTF-8"?>
<svg width="16px" height="16px" viewBox="0 0 16 16" version="1.1" xmlns="http://www.w3.org/2000/svg" xmlns:xlink="http://www.w3.org/1999/xlink">
    <!-- Generator: Sketch 52.4 (67378) - http://www.bohemiancoding.com/sketch -->
    <title>Group 25</title>
    <desc>Created with Sketch.</desc>
    <g id="Page-1" stroke="none" stroke-width="1" fill="none" fill-rule="evenodd">
        <g id="Group-25" transform="translate(1.000000, 1.000000)" fill="#4A90E2" fill-rule="nonzero" stroke="#4A90E2" stroke-width="0.3">
            <g id="Group-15">
                <path d="M7,0 C3.13363029,0 0,3.14571746 0,7.00778643 C0,10.8698554 3.13363029,14 7,14 C10.8663697,14 14,10.8542825 14,7.00778643 C14,3.16129032 10.8663697,0 7,0 Z M7,13.3459399 C3.4922049,13.3459399 0.654788419,10.4961068 0.654788419,7.00778643 C0.654788419,3.51946607 3.4922049,0.654060067 7,0.654060067 C10.5077951,0.654060067 13.3452116,3.50389321 13.3452116,6.99221357 C13.3452116,10.4805339 10.5077951,13.3459399 7,13.3459399 Z" id="Shape"></path>
                <path d="M9.19140058,6.55497097 C8.52086357,6.55497097 7.86556604,6.55497097 7.19502903,6.55497097 C7.19502903,5.88443396 7.19502903,5.22913643 7.19502903,4.55859942 C7.19502903,4.14713353 6.55497097,4.14713353 6.55497097,4.55859942 C6.55497097,5.22913643 6.55497097,5.88443396 6.55497097,6.55497097 C5.88443396,6.55497097 5.22913643,6.55497097 4.55859942,6.55497097 C4.14713353,6.55497097 4.14713353,7.19502903 4.55859942,7.19502903 C5.22913643,7.19502903 5.88443396,7.19502903 6.55497097,7.19502903 C6.55497097,7.86556604 6.55497097,8.52086357 6.55497097,9.19140058 C6.55497097,9.60286647 7.19502903,9.60286647 7.19502903,9.19140058 C7.19502903,8.52086357 7.19502903,7.86556604 7.19502903,7.19502903 C7.86556604,7.19502903 8.52086357,7.19502903 9.19140058,7.19502903 C9.60286647,7.21026851 9.60286647,6.55497097 9.19140058,6.55497097 Z" id="Shape"></path>
            </g>
        </g>
    </g>
</svg>