<?xml version="1.0" encoding="UTF-8"?>
<svg width="30px" height="31px" viewBox="0 0 30 31" version="1.1" xmlns="http://www.w3.org/2000/svg" xmlns:xlink="http://www.w3.org/1999/xlink">
    <!-- Generator: Sketch 52.4 (67378) - http://www.bohemiancoding.com/sketch -->
    <title>Group 34 Copy 6</title>
    <desc>Created with Sketch.</desc>
    <g id="Page-1" stroke="none" stroke-width="1" fill="none" fill-rule="evenodd">
        <g id="Group-34-Copy-6" transform="translate(1.000000, 0.000000)">
            <g id="Group-34-Copy-5">
                <g id="Group-30">
                    <g id="Group-5" transform="translate(0.000000, 1.000000)" stroke="#F3F3F3" stroke-width="2">
                        <circle id="Oval-8" cx="14" cy="14.0322581" r="14"></circle>
                    </g>
                    <path d="M14.0037177,13.3400532 C14.2376728,5.94880522 20.3048974,0.025485016 27.764753,8.20160147e-05 C27.7695188,2.73882596e-05 27.7742911,0 27.7790698,0 C27.7816576,0 27.7842436,8.03188672e-06 27.7868276,2.40720348e-05 C27.7955262,8.02635022e-06 27.8042267,0 27.8129291,0 C28.4715751,0.018350253 29,0.556614164 29,1.21800234 C29,1.87939052 28.4715751,2.41765443 27.8129291,2.43554535 L27.8129291,2.43760966 C21.8352741,2.51412344 16.983943,7.25122837 16.7426176,13.1735966 C16.7605264,13.2592378 16.7699242,13.3478481 16.7699242,13.4385732 C16.7699242,14.1755177 16.1498556,14.7729292 15.3849621,14.7729292 C14.6342912,14.7729292 14.0231094,14.1975279 14.0006401,13.4795342 C14.0000956,13.4751212 14.0001932,13.4707087 14.000293,13.4662966 C14.000098,13.4570782 14,13.4478367 14,13.4385732 C14,13.4054372 14.0012536,13.3725833 14.0037177,13.3400532 Z" id="Combined-Shape" fill="#FFC12E" transform="translate(21.500000, 7.386465) scale(-1, 1) translate(-21.500000, -7.386465) "></path>
                </g>
                <g id="Group-28" transform="translate(6.000000, 8.000000)">
                    <g id="Group-24">
                        <g id="Group-22" fill="#9B9B9B" stroke="#9B9B9B" stroke-width="0.3">
                            <g id="noun_1161016_cc">
                                <g id="Group">
                                    <path d="M8.60707791,5.14682363 C8.55340678,5.14519867 8.50245969,5.17284535 8.4708986,5.22072198 C8.13743163,5.71190989 7.60645233,6.02996313 7.00406163,6.02996313 C6.40342907,6.02996313 5.87072256,5.71169636 5.53911302,5.22105752 C5.50465576,5.16876081 5.44734635,5.14092831 5.38908005,5.14819354 C5.33081375,5.15545876 5.28059336,5.19669916 5.25760575,5.25615868 C5.23461814,5.3156182 5.24241515,5.38410969 5.27801791,5.43546574 C5.66928535,6.01438821 6.29895814,6.38880545 7.00406163,6.38880545 C7.71066279,6.38880545 8.33893395,6.01411726 8.73160302,5.43574745 C8.76899085,5.38227015 8.77598411,5.31018841 8.74970097,5.24920614 C8.72341784,5.18822386 8.66830662,5.14866207 8.60707791,5.14682363 Z" id="Shape"></path>
                                    <path d="M8.68428302,11.0888262 C8.62608766,11.0887293 8.57229362,11.1554177 8.54318292,11.2637478 C8.51407222,11.372078 8.51407222,11.5055742 8.54318292,11.6139043 C8.57229362,11.7222345 8.62608766,11.7889229 8.68428302,11.788826 L9.98025326,11.788826 C10.0384486,11.7889229 10.0922427,11.7222345 10.1213534,11.6139043 C10.1504641,11.5055742 10.1504641,11.372078 10.1213534,11.2637478 C10.0922427,11.1554177 10.0384486,11.0887293 9.98025326,11.0888262 L8.68428302,11.0888262 Z" id="Shape"></path>
                                    <path d="M3.77395233,0.161749542 C2.31886884,0.161749542 1.13482535,1.45842125 1.13482535,3.05276601 C1.13482535,4.26389765 1.81679791,5.30146217 2.78146628,5.73156516 C1.17947558,6.21491537 4.88372093e-06,7.83901398 4.88372093e-06,9.76443715 C2.28857511e-05,9.86351942 0.0728909151,9.94383596 0.162782558,9.94385382 L2.86874651,9.94385382 C2.42861256,10.7503586 2.1751686,11.6955663 2.1751686,12.7056935 C2.17515964,12.8047968 2.24803557,12.8851462 2.33794628,12.885164 L6.97751209,12.885164 C6.99494312,12.8883116 7.01272269,12.8883116 7.03015372,12.885164 L11.6702421,12.885164 C11.7601522,12.8851452 11.8330271,12.8047961 11.8330181,12.7056935 C11.8330181,11.6955663 11.5795742,10.7503586 11.139424,9.94385382 L13.8372174,9.94385382 C13.9271091,9.94383596 13.9999771,9.86351942 13.9999951,9.76443715 C13.9999951,7.83901398 12.820557,6.21491537 11.2185826,5.73156516 C12.1832347,5.30145679 12.8652235,4.26388867 12.8652235,3.05276601 C12.8652235,1.45842304 11.6811637,0.161749542 10.2260949,0.161749542 C9.60968953,0.161749542 9.04016302,0.39430219 8.59063767,0.784113131 C8.11778442,0.506201206 7.5775586,0.34834719 7.00406163,0.34834719 C6.42882116,0.34834719 5.88695116,0.507365737 5.41302512,0.787308861 C4.96320512,0.395708957 4.39345233,0.161749542 3.77395233,0.161749542 Z M3.77395233,0.520590068 C4.27482023,0.520590068 4.73549674,0.693299476 5.11279837,0.98753098 C4.22561186,1.65099048 3.64205442,2.76751521 3.64205442,4.03256874 C3.64205442,4.58417229 3.75340977,5.10752924 3.95239047,5.57748824 C3.89351395,5.58227915 3.83406605,5.58489889 3.77395233,5.58489889 C2.49367512,5.58489889 1.4603807,4.45367667 1.4603807,3.05277498 C1.4603807,1.65378786 2.49380535,0.52059904 3.77395233,0.52059904 L3.77395233,0.520590068 Z M10.2260949,0.520590068 C11.5062435,0.520590068 12.5396193,1.65377889 12.5396193,3.05276601 C12.5396193,4.4536677 11.5063574,5.58488992 10.2260949,5.58488992 C10.1691881,5.58488992 10.1128512,5.58250344 10.0570677,5.57821495 C10.2562747,5.10806934 10.3677114,4.5844558 10.3677114,4.03256695 C10.3677114,2.7652956 9.78213535,1.64702497 8.89193884,0.983996118 C9.26860558,0.692034462 9.72877744,0.520588274 10.2260949,0.520588274 L10.2260949,0.520590068 Z M7.00406163,0.707241546 C8.68485279,0.707241546 10.0421577,2.19379635 10.0421577,4.03256874 C10.0421577,5.86945707 8.68485279,7.35615542 7.00406163,7.35615542 C5.3250107,7.35615542 3.9676586,5.86945707 3.9676586,4.03256874 C3.9676586,2.19379635 5.3250107,0.707241546 7.00406163,0.707241546 Z M3.77395233,5.94378607 C3.89857512,5.94378607 4.02215605,5.95204006 4.14386488,5.96660657 C4.54307651,6.67259925 5.15391605,7.22016193 5.87871558,7.50277145 C4.73525256,7.80567503 3.74945558,8.5596234 3.08301163,9.58500253 L0.329483488,9.58500253 C0.413883953,7.55595587 1.92221302,5.94378607 3.77395233,5.94378607 Z M10.2260949,5.94378607 C12.0778195,5.94378607 13.5861649,7.55595587 13.6705653,9.58500253 L10.9251767,9.58500253 C10.2588305,8.55974901 9.27321256,7.80587241 8.1299286,7.50289705 C8.85573744,7.22014398 9.46719395,6.67202506 9.86655209,5.96531643 C9.98490744,5.95153585 10.1050047,5.94378607 10.2260949,5.94378607 Z M7.00406163,7.71500672 C7.35906256,7.71500672 7.70434651,7.76056516 8.03556535,7.84642463 L7.00417558,8.9571608 L5.97379349,7.8460837 C6.30463953,7.76042162 6.64951488,7.71500672 7.00406163,7.71500672 Z M5.6120693,7.95794324 C5.61317031,7.95921734 5.61428826,7.96047352 5.61542279,7.96171137 L6.84128395,9.28353443 L6.84128395,12.5262051 L2.50393093,12.5262051 C2.57208488,10.3848862 3.85441326,8.58944544 5.6120693,7.95790736 L5.6120693,7.95794324 Z M8.3972407,7.95794324 C10.1543107,8.58985814 11.4361181,10.3849579 11.5042574,12.5258103 L7.1668393,12.5258103 L7.1668393,9.28324733 L8.39429581,7.96137045 C8.39529147,7.96024828 8.39627372,7.95911176 8.39724233,7.95796119 L8.3972407,7.95794324 Z" id="Shape"></path>
                                </g>
                            </g>
                        </g>
                        <path d="M13.0134409,13 C12.7392473,13 12.5134409,12.766129 12.5134409,12.5 C12.5134409,12.2258065 12.7392473,12 13.0134409,12 C13.2876344,12 13.5134409,12.2258065 13.5134409,12.5 C13.5134409,12.766129 13.2876344,13 13.0134409,13 Z M14.2526882,13 C13.9784946,13 13.7526882,12.766129 13.7526882,12.5 C13.7526882,12.2258065 13.9784946,12 14.2526882,12 C14.5268817,12 14.7607527,12.2258065 14.7607527,12.5 C14.7607527,12.766129 14.5268817,13 14.2526882,13 Z M15.5,13 C15.2258065,13 15,12.766129 15,12.5 C15,12.2258065 15.2258065,12 15.5,12 C15.7741935,12 16,12.2258065 16,12.5 C16,12.766129 15.7741935,13 15.5,13 Z" id="…" fill="#FFFFFF"></path>
                    </g>
                </g>
            </g>
        </g>
    </g>
</svg>